<svg width="600" height="600" viewBox="0 0 512 512" fill="none" xmlns="http://www.w3.org/2000/svg">
  <defs>
    <linearGradient id="wa_grad" x1="0%" y1="0%" x2="100%" y2="100%">
      <stop offset="0%" style="stop-color:#25D366;stop-opacity:1" />
      <stop offset="100%" style="stop-color:#128C7E;stop-opacity:1" />
    </linearGradient>
  </defs>
  <circle cx="256" cy="256" r="240" fill="white" stroke="url(#wa_grad)" stroke-width="20"/>
  <path d="M150 350V162L256 280L362 162V350" stroke="url(#wa_grad)" stroke-width="45" stroke-linecap="round" stroke-linejoin="round"/>
  <path d="M256 320C280 320 310 300 310 270C310 240 280 220 256 220C232 220 202 240 202 270C202 300 232 320 256 320Z" fill="url(#wa_grad)" fill-opacity="0.1" stroke="url(#wa_grad)" stroke-width="5"/>
  <path d="M400 112C400 125.255 389.255 136 376 136C362.745 136 352 125.255 352 112C352 98.7452 362.745 88 376 88C389.255 88 400 98.7452 400 112Z" fill="#25D366"/>
</svg>